<svg xmlns="http://www.w3.org/2000/svg" width="49" height="56" viewBox="0 0 49 56">
    <g fill="none" fill-rule="evenodd">
        <g>
            <g>
                <g>
                    <path fill="#FF0400" d="M26.772 35.043c9.136-4.568 12.84-15.678 8.271-24.815-4.568-9.136-15.678-12.84-24.815-8.271-9.136 4.568-12.84 15.678-8.271 24.815 4.568 9.136 15.678 12.84 24.815 8.271z" transform="translate(-163 -488) translate(163 488) translate(5.498)"/>
                    <path fill="#FFF" d="M17.228 16.136v5.779c0 1.407-1.124 2.512-2.443 2.512H12V29h2.785c3.86 0 6.987-3.216 6.987-7.136v-5.728c0-1.357 1.124-2.513 2.443-2.513H27V9h-2.785c-3.909 0-6.987 3.216-6.987 7.136" transform="translate(-163 -488) translate(163 488) translate(5.498)"/>
                </g>
                <path fill="#404040" d="M17.74 42.62c-2.65 0-4.77 2.008-4.77 4.518s2.173 4.517 4.716 4.517c1.272 0 2.279-.502 2.967-1.305v.753c0 1.506-1.271 2.71-2.914 2.71h-.37v1.808h.37c2.65 0 4.769-2.008 4.769-4.518v-3.965c0-2.51-2.12-4.517-4.769-4.517m0 7.027c-1.483 0-2.649-1.105-2.649-2.51 0-1.405 1.166-2.51 2.65-2.51 1.536 0 2.648 1.205 2.648 2.51 0 1.405-1.165 2.51-2.649 2.51m11.127-7.027c2.225 0 4.027 1.706 4.027 3.814v5.02h-2.12v-5.02c0-1.004-.9-1.807-1.907-1.807-1.007 0-1.96.803-1.96 1.807v5.02h-2.12v-5.02c0-2.108 1.855-3.814 4.08-3.814m15.312 0c-2.649 0-4.768 2.007-4.768 4.517 0 2.51 2.172 4.517 4.715 4.517 1.272 0 2.279-.502 2.968-1.305v1.105H49v-4.317c-.053-2.51-2.172-4.517-4.822-4.517m0 7.027c-1.483 0-2.649-1.105-2.649-2.51 0-1.405 1.166-2.51 2.65-2.51 1.324 0 2.649 1.004 2.649 2.51 0 1.405-1.166 2.51-2.65 2.51m-33.37-7.027v8.894h-2.16v-8.894h2.16zm-3.602 0v2.056H5.862c-.646 0-1.184.514-1.184 1.131v2.52c0 1.748-1.505 3.187-3.334 3.187H0V49.46h1.29c.646 0 1.184-.514 1.184-1.131v-2.52c0-1.748 1.505-3.187 3.388-3.187h1.344zm30.296.2v8.634h-2.119V42.82h2.12z" transform="translate(-163 -488) translate(163 488)"/>
            </g>
        </g>
    </g>
</svg>
